<mxfile host="app.diagrams.net" modified="2023-04-27T03:21:47.344Z" agent="Mozilla/5.0 (Macintosh; Intel Mac OS X 10_15_7) AppleWebKit/537.36 (KHTML, like Gecko) Chrome/112.0.0.0 Safari/537.36" version="21.2.1" etag="GoKNbCZHfd7s-QzV-iYW" type="github">
  <diagram name="Page-1" id="uSo11_-bFZ7b1Z23QGCT">
    <mxGraphModel>
      <root>
        <mxCell id="0" />
        <mxCell id="1" parent="0" />
      </root>
    </mxGraphModel>
  </diagram>
</mxfile>
